<?xml version="1.0" encoding="utf-8"?><svg version="1.1" id="Layer_1" xmlns="http://www.w3.org/2000/svg" xmlns:xlink="http://www.w3.org/1999/xlink" x="0px" y="0px" viewBox="0 0 110.81 122.88" style="enable-background:new 0 0 110.81 122.88" xml:space="preserve"><style type="text/css">.st0{fill-rule:evenodd;clip-rule:evenodd;}</style><g><path class="st0" d="M51.08,47.34c-4.95-11.72-11.41-19.29-11.41-26.86C39.67,10.24,43.6,0,55.41,0c11.8,0,15.73,10.24,15.73,20.48 c0,7.57-6.45,15.15-11.41,26.86c2.15,0.67,4.1,1.82,5.7,3.33c7.68-10.16,11.02-19.55,17.58-23.34c8.87-5.12,19.7-6.83,25.6,3.39 c5.9,10.22-1,18.75-9.87,23.87c-6.57,3.8-16.39,1.98-29.05,3.56c0.23,1.02,0.35,2.08,0.35,3.18c0,1.17-0.14,2.31-0.4,3.4 c12.69,1.6,22.52-0.23,29.11,3.57c8.87,5.12,15.77,13.65,9.87,23.87c-5.9,10.22-16.74,8.51-25.6,3.39 c-6.59-3.81-9.93-13.26-17.68-23.47c-1.6,1.48-3.54,2.61-5.68,3.26c4.96,11.83,11.49,19.45,11.49,27.07 c0,10.24-3.93,20.48-15.73,20.48s-15.73-10.24-15.73-20.48c0-7.62,6.53-15.24,11.49-27.07c-2.14-0.65-4.08-1.78-5.68-3.26 C37.73,82.28,34.39,91.74,27.8,95.55c-8.87,5.12-19.7,6.83-25.6-3.39c-5.9-10.22,1-18.75,9.87-23.87 c6.58-3.8,16.42-1.97,29.11-3.57c-0.26-1.09-0.4-2.23-0.4-3.4c0-1.09,0.12-2.15,0.35-3.18c-12.66-1.59-22.48,0.23-29.05-3.56 C3.2,49.47-3.7,40.94,2.2,30.72c5.9-10.22,16.74-8.51,25.6-3.39c6.56,3.79,9.9,13.18,17.58,23.34 C46.98,49.16,48.92,48.01,51.08,47.34L51.08,47.34z"/></g></svg>